# xmcd
#
# Track frame offsets:
#	150
#	14612
#	35712
#	60483
#	79459
#	93265
#	106324
#	131654
#	152971
#	175730
#	204061
#	225270
#	245949
#	266265
#
# Disc length: 3852 seconds
#
# Revision: 1
# Processed by: cddbd v1.5.2PL0 Copyright (c) Steve Scherf et al.
# Submitted via: audiograbber 1.83.01
#
DISCID=b40f0a0e
DTITLE=Budda Power Blues - Busted
DYEAR=2008
DGENRE=Acoustic
TTITLE0=Proud Mary
TTITLE1=Higher Ground
TTITLE2=Sweet Home Chicago
TTITLE3=You Are So Beautiful
TTITLE4=Manic Depression
TTITLE5=I'm Going Blind
TTITLE6=Blue Jeans Blues
TTITLE7=Come Rain Or Come Shine
TTITLE8=Let's Go Get Stoned
TTITLE9=I Shot The Sheriff
TTITLE10=If You Want Me To Stay
TTITLE11=I Wanna Be Burning In Your Fire
TTITLE12=Knocking On Heaven's Door
TTITLE13=Stormy Monday Blues
EXTD=
EXTT0=
EXTT1=
EXTT2=
EXTT3=
EXTT4=
EXTT5=
EXTT6=
EXTT7=
EXTT8=
EXTT9=
EXTT10=
EXTT11=
EXTT12=
EXTT13=
PLAYORDER=
